<svg width="40" height="40" viewBox="0 0 40 40" fill="none" xmlns="http://www.w3.org/2000/svg">
<path d="M26.6667 33.3332V36.5532C26.6665 36.7117 26.7114 36.8669 26.7963 37.0008C26.8812 37.1346 27.0025 37.2415 27.1459 37.3089C27.2894 37.3762 27.4491 37.4013 27.6063 37.3811C27.7635 37.3609 27.9116 37.2963 28.0334 37.1948L34.9001 31.4732C35.0318 31.3633 35.1264 31.2156 35.171 31.05C35.2156 30.8844 35.2081 30.7091 35.1494 30.548C35.0907 30.3868 34.9837 30.2477 34.8431 30.1496C34.7024 30.0515 34.5349 29.9992 34.3634 29.9998H10.0001C9.11603 29.9998 8.26818 29.6487 7.64306 29.0235C7.01794 28.3984 6.66675 27.5506 6.66675 26.6665V13.3332H3.33341V26.6665C3.33341 28.4346 4.03579 30.1303 5.28604 31.3806C6.53628 32.6308 8.23197 33.3332 10.0001 33.3332H26.6667ZM13.3334 6.66651V3.44651C13.3337 3.28802 13.2887 3.13274 13.2039 2.9989C13.119 2.86505 12.9977 2.75818 12.8542 2.69082C12.7108 2.62347 12.5511 2.59842 12.3939 2.61861C12.2367 2.6388 12.0885 2.70341 11.9667 2.80484L5.10008 8.52651C4.96849 8.63624 4.87392 8.78388 4.82926 8.9493C4.7846 9.11472 4.79201 9.28988 4.8505 9.45094C4.90898 9.61199 5.01569 9.7511 5.15608 9.84933C5.29648 9.94755 5.46374 10.0001 5.63508 9.99984H30.0001C30.8841 9.99984 31.732 10.351 32.3571 10.9762C32.9822 11.6013 33.3334 12.4491 33.3334 13.3332V26.6665H36.6667V13.3332C36.6667 11.5651 35.9644 9.86937 34.7141 8.61913C33.4639 7.36888 31.7682 6.66651 30.0001 6.66651H13.3334Z" fill="white"/>
<path d="M19.5139 22.95V24H15.1239V22.95H16.6839V18.36L15.2339 19.23V18.08L17.2139 16.88H17.9639V22.95H19.5139ZM23 24.09C22.1533 24.09 21.5067 23.78 21.06 23.16C20.62 22.5333 20.4 21.6233 20.4 20.43C20.4 19.2567 20.62 18.36 21.06 17.74C21.5067 17.12 22.1533 16.81 23 16.81C23.8467 16.81 24.49 17.12 24.93 17.74C25.3767 18.3533 25.6 19.25 25.6 20.43C25.6 21.6167 25.3767 22.5233 24.93 23.15C24.49 23.7767 23.8467 24.09 23 24.09ZM23 23.08C23.46 23.08 23.7933 22.87 24 22.45C24.2133 22.0233 24.32 21.35 24.32 20.43C24.32 19.5233 24.2133 18.8633 24 18.45C23.7933 18.03 23.46 17.82 23 17.82C22.54 17.82 22.2033 18.03 21.99 18.45C21.7833 18.8633 21.68 19.5233 21.68 20.43C21.68 21.35 21.7833 22.0233 21.99 22.45C22.2033 22.87 22.54 23.08 23 23.08Z" fill="white"/>
</svg>
