<svg width="20" height="20" viewBox="0 0 20 20" fill="none" xmlns="http://www.w3.org/2000/svg">
<path fill-rule="evenodd" clip-rule="evenodd" d="M20 10C20 15.421 15.421 20 10 20C4.579 20 0 15.421 0 10C0 4.579 4.579 0 10 0C15.421 0 20 4.579 20 10ZM18 10C18 5.663 14.337 2 10 2C5.663 2 2 5.663 2 10C2 14.337 5.663 18 10 18C14.337 18 18 14.337 18 10ZM13.707 13.708C12.581 14.832 10.901 15 10 15C7.243 15 5 12.757 5 10C5 7.243 7.243 5 10 5C10.901 5 12.582 5.168 13.707 6.293L12.293 7.707C11.851 7.265 10.993 7 10 7C8.374 7 7 8.374 7 10C7 11.626 8.374 13 10 13C10.992 13 11.85 12.735 12.293 12.292L13.707 13.708Z" fill="white"/>
</svg>
