<svg width="25" height="25" viewBox="0 0 25 25" fill="none" xmlns="http://www.w3.org/2000/svg">
<path d="M21.6311 0H3.36882C1.50831 0 0 1.45023 0 3.23923V20.7991C0 22.5881 1.50825 24.0383 3.36882 24.0383H12.3757L12.391 15.4483H10.0701C9.76846 15.4483 9.52365 15.2138 9.52248 14.9238L9.51135 12.1549C9.51019 11.8633 9.75574 11.6263 10.059 11.6263H12.3758V8.95083C12.3758 5.84596 14.3479 4.15534 17.2284 4.15534H19.5921C19.8946 4.15534 20.1398 4.39109 20.1398 4.68193V7.0167C20.1398 7.30742 19.8947 7.54311 19.5924 7.54329L18.1419 7.54394C16.5753 7.54394 16.272 8.2597 16.272 9.31012V11.6264H19.7142C20.0422 11.6264 20.2967 11.9017 20.258 12.2149L19.9167 14.9838C19.884 15.2488 19.6504 15.4485 19.3729 15.4485H16.2873L16.272 24.0385H21.6312C23.4917 24.0385 25 22.5882 25 20.7993V3.23923C24.9999 1.45023 23.4917 0 21.6311 0Z" fill="white"/>
</svg>
