<svg width="40" height="40" viewBox="0 0 40 40" fill="none" xmlns="http://www.w3.org/2000/svg">
<path d="M13.3333 33.3332V36.5532C13.3335 36.7117 13.2886 36.8669 13.2037 37.0008C13.1188 37.1346 12.9975 37.2415 12.8541 37.3089C12.7106 37.3762 12.5509 37.4013 12.3937 37.3811C12.2365 37.3609 12.0884 37.2963 11.9666 37.1948L5.09992 31.4732C4.96822 31.3633 4.8736 31.2156 4.82899 31.05C4.78437 30.8844 4.79192 30.7091 4.85061 30.548C4.90931 30.3868 5.01628 30.2477 5.15694 30.1496C5.2976 30.0515 5.4651 29.9992 5.63659 29.9998H29.9999C30.884 29.9998 31.7318 29.6487 32.3569 29.0235C32.9821 28.3984 33.3333 27.5506 33.3333 26.6665V13.3332H36.6666V26.6665C36.6666 28.4346 35.9642 30.1303 34.714 31.3806C33.4637 32.6308 31.768 33.3332 29.9999 33.3332H13.3333ZM26.6666 6.66651V3.44651C26.6663 3.28802 26.7113 3.13274 26.7961 2.9989C26.881 2.86505 27.0023 2.75818 27.1458 2.69082C27.2892 2.62347 27.4489 2.59842 27.6061 2.61861C27.7633 2.6388 27.9115 2.70341 28.0333 2.80484L34.8999 8.52651C35.0315 8.63624 35.1261 8.78388 35.1707 8.9493C35.2154 9.11472 35.208 9.28988 35.1495 9.45094C35.091 9.61199 34.9843 9.7511 34.8439 9.84933C34.7035 9.94755 34.5363 10.0001 34.3649 9.99984H9.99992C9.11586 9.99984 8.26802 10.351 7.6429 10.9762C7.01777 11.6013 6.66659 12.4491 6.66659 13.3332V26.6665H3.33325V13.3332C3.33325 11.5651 4.03563 9.86937 5.28587 8.61913C6.53612 7.36888 8.23181 6.66651 9.99992 6.66651H26.6666Z" fill="white"/>
<path d="M19.5139 22.95V24H15.1239V22.95H16.6839V18.36L15.2339 19.23V18.08L17.2139 16.88H17.9639V22.95H19.5139ZM23 24.09C22.1533 24.09 21.5067 23.78 21.06 23.16C20.62 22.5333 20.4 21.6233 20.4 20.43C20.4 19.2567 20.62 18.36 21.06 17.74C21.5067 17.12 22.1533 16.81 23 16.81C23.8467 16.81 24.49 17.12 24.93 17.74C25.3767 18.3533 25.6 19.25 25.6 20.43C25.6 21.6167 25.3767 22.5233 24.93 23.15C24.49 23.7767 23.8467 24.09 23 24.09ZM23 23.08C23.46 23.08 23.7933 22.87 24 22.45C24.2133 22.0233 24.32 21.35 24.32 20.43C24.32 19.5233 24.2133 18.8633 24 18.45C23.7933 18.03 23.46 17.82 23 17.82C22.54 17.82 22.2033 18.03 21.99 18.45C21.7833 18.8633 21.68 19.5233 21.68 20.43C21.68 21.35 21.7833 22.0233 21.99 22.45C22.2033 22.87 22.54 23.08 23 23.08Z" fill="white"/>
</svg>
