<svg width="25" height="25" viewBox="0 0 25 25" fill="none" xmlns="http://www.w3.org/2000/svg">
<path d="M17.5524 0H7.44763C3.34099 0 0 3.34099 0 7.44764V17.5524C0 21.659 3.34099 25 7.44763 25H17.5524C21.659 25 25 21.659 25 17.5524V7.44764C24.9999 3.34099 21.659 0 17.5524 0ZM22.485 17.5524C22.485 20.2766 20.2766 22.485 17.5524 22.485H7.44763C4.72344 22.485 2.515 20.2766 2.515 17.5524V7.44764C2.515 4.72339 4.72344 2.515 7.44763 2.515H17.5524C20.2766 2.515 22.485 4.72339 22.485 7.44764V17.5524Z" fill="white"/>
<path d="M12.5001 6.03416C8.93477 6.03416 6.03418 8.93475 6.03418 12.5C6.03418 16.0653 8.93477 18.9659 12.5001 18.9659C16.0654 18.9659 18.966 16.0653 18.966 12.5C18.966 8.9347 16.0654 6.03416 12.5001 6.03416ZM12.5001 16.4509C10.318 16.4509 8.54918 14.6821 8.54918 12.5C8.54918 10.318 10.3181 8.54916 12.5001 8.54916C14.6821 8.54916 16.451 10.318 16.451 12.5C16.451 14.682 14.6821 16.4509 12.5001 16.4509Z" fill="white"/>
<path d="M18.9781 7.63246C19.8338 7.63246 20.5274 6.93879 20.5274 6.0831C20.5274 5.22742 19.8338 4.53374 18.9781 4.53374C18.1224 4.53374 17.4287 5.22742 17.4287 6.0831C17.4287 6.93879 18.1224 7.63246 18.9781 7.63246Z" fill="white"/>
</svg>
