<svg width="40" height="40" viewBox="0 0 40 40" fill="none" xmlns="http://www.w3.org/2000/svg">
<path d="M13.889 24H10C9.73478 24 9.48043 23.8947 9.29289 23.7071C9.10536 23.5196 9 23.2652 9 23V17C9 16.7348 9.10536 16.4805 9.29289 16.2929C9.48043 16.1054 9.73478 16 10 16H13.889L19.183 11.668C19.2563 11.608 19.3451 11.57 19.4391 11.5584C19.5331 11.5469 19.6284 11.5623 19.714 11.6028C19.7996 11.6434 19.872 11.7074 19.9226 11.7875C19.9732 11.8675 20.0001 11.9603 20 12.055V27.945C20.0001 28.0397 19.9732 28.1325 19.9226 28.2126C19.872 28.2926 19.7996 28.3567 19.714 28.3972C19.6284 28.4378 19.5331 28.4532 19.4391 28.4416C19.3451 28.4301 19.2563 28.3921 19.183 28.332L13.89 24H13.889ZM28.414 20L31.95 23.536L30.536 24.95L27 21.414L23.464 24.95L22.05 23.536L25.586 20L22.05 16.464L23.464 15.05L27 18.586L30.536 15.05L31.95 16.464L28.414 20Z" fill="white"/>
</svg>
