<svg width="40" height="40" viewBox="0 0 40 40" fill="none" xmlns="http://www.w3.org/2000/svg">
<path d="M26.6667 18.8882L9.62833 7.52984C9.50284 7.44633 9.35705 7.39842 9.20648 7.39122C9.05592 7.38402 8.90622 7.41779 8.77333 7.48894C8.64044 7.56008 8.52934 7.66594 8.45185 7.79524C8.37437 7.92454 8.33341 8.07243 8.33333 8.22317V31.7765C8.33341 31.9272 8.37437 32.0751 8.45185 32.2044C8.52934 32.3337 8.64044 32.4396 8.77333 32.5107C8.90622 32.5819 9.05592 32.6157 9.20648 32.6084C9.35705 32.6012 9.50284 32.5533 9.62833 32.4698L26.6667 21.1115V31.6665C26.6667 32.1085 26.8423 32.5325 27.1548 32.845C27.4674 33.1576 27.8913 33.3332 28.3333 33.3332C28.7754 33.3332 29.1993 33.1576 29.5118 32.845C29.8244 32.5325 30 32.1085 30 31.6665V8.33317C30 7.89114 29.8244 7.46722 29.5118 7.15466C29.1993 6.8421 28.7754 6.6665 28.3333 6.6665C27.8913 6.6665 27.4674 6.8421 27.1548 7.15466C26.8423 7.46722 26.6667 7.89114 26.6667 8.33317V18.8882Z" fill="white"/>
</svg>
