<svg width="40" height="40" viewBox="0 0 40 40" fill="none" xmlns="http://www.w3.org/2000/svg">
<path d="M32.2932 20.6935L14.6283 32.4702C14.5028 32.5537 14.357 32.6016 14.2064 32.6088C14.0558 32.616 13.9061 32.5822 13.7733 32.5111C13.6404 32.4399 13.5293 32.3341 13.4518 32.2048C13.3743 32.0755 13.3333 31.9276 13.3333 31.7769V8.22353C13.3333 8.07279 13.3743 7.9249 13.4518 7.7956C13.5293 7.6663 13.6404 7.56044 13.7733 7.48929C13.9061 7.41815 14.0558 7.38437 14.2064 7.39158C14.357 7.39878 14.5028 7.44669 14.6283 7.5302L32.2932 19.3069C32.4074 19.383 32.501 19.4861 32.5657 19.607C32.6304 19.728 32.6643 19.863 32.6643 20.0002C32.6643 20.1374 32.6304 20.2724 32.5657 20.3934C32.501 20.5143 32.4074 20.6174 32.2932 20.6935Z" fill="white"/>
</svg>
