<svg width="40" height="40" viewBox="0 0 40 40" fill="none" xmlns="http://www.w3.org/2000/svg">
<path d="M28 8.5C28 7.67157 28.6716 7 29.5 7H37C38.1046 7 39 7.89543 39 9V14.5C39 15.3284 38.3284 16 37.5 16C36.6716 16 36 15.3284 36 14.5V12C36 10.8954 35.1046 10 34 10H29.5C28.6716 10 28 9.32843 28 8.5ZM1 9C1 7.89543 1.89543 7 3 7H10.5C11.3284 7 12 7.67157 12 8.5C12 9.32843 11.3284 10 10.5 10H6C4.89543 10 4 10.8954 4 12V14.5C4 15.3284 3.32843 16 2.5 16C1.67157 16 1 15.3284 1 14.5V9ZM34 31C35.1046 31 36 30.1046 36 29V26.5C36 25.6716 36.6716 25 37.5 25C38.3284 25 39 25.6716 39 26.5V32C39 33.1046 38.1046 34 37 34H29.5C28.6716 34 28 33.3284 28 32.5C28 31.6716 28.6716 31 29.5 31H34ZM4 29C4 30.1046 4.89543 31 6 31H10.5C11.3284 31 12 31.6716 12 32.5C12 33.3284 11.3284 34 10.5 34H3C1.89543 34 1 33.1046 1 32V26.5C1 25.6716 1.67157 25 2.5 25C3.32843 25 4 25.6716 4 26.5V29Z" fill="white"/>
</svg>
