<svg width="40" height="40" viewBox="0 0 40 40" fill="none" xmlns="http://www.w3.org/2000/svg">
<path d="M13.889 24H10C9.73478 24 9.48043 23.8947 9.29289 23.7071C9.10536 23.5196 9 23.2652 9 23V17C9 16.7348 9.10536 16.4805 9.29289 16.2929C9.48043 16.1054 9.73478 16 10 16H13.889L19.183 11.668C19.2563 11.608 19.3451 11.57 19.4391 11.5584C19.5331 11.5469 19.6284 11.5623 19.714 11.6028C19.7996 11.6434 19.872 11.7074 19.9226 11.7875C19.9732 11.8675 20.0001 11.9603 20 12.055V27.945C20.0001 28.0397 19.9732 28.1325 19.9226 28.2126C19.872 28.2926 19.7996 28.3567 19.714 28.3972C19.6284 28.4378 19.5331 28.4532 19.4391 28.4416C19.3451 28.4301 19.2563 28.3921 19.183 28.332L13.89 24H13.889ZM27.406 28.134L25.99 26.718C26.938 25.8745 27.6964 24.8397 28.2152 23.6817C28.734 22.5237 29.0015 21.2689 29 20C29.0012 18.6661 28.7054 17.3487 28.1339 16.1434C27.5624 14.9381 26.7296 13.8753 25.696 13.032L27.116 11.612C28.3345 12.6436 29.3132 13.9285 29.9841 15.3772C30.6549 16.8259 31.0016 18.4035 31 20C31 23.223 29.614 26.122 27.406 28.134ZM23.863 24.591L22.441 23.169C22.9265 22.7957 23.3196 22.3158 23.5899 21.7663C23.8602 21.2167 24.0006 20.6124 24 20C24 18.57 23.25 17.315 22.12 16.608L23.559 15.169C24.3165 15.7262 24.9321 16.4539 25.3562 17.2931C25.7802 18.1324 26.0008 19.0597 26 20C26 21.842 25.17 23.49 23.863 24.591Z" fill="white"/>
</svg>
