<svg width="28" height="23" viewBox="0 0 28 23" fill="none" xmlns="http://www.w3.org/2000/svg">
<path d="M25.123 5.6735C26.2617 4.865 27.2195 3.85583 28 2.69383V2.69267C26.9582 3.14883 25.8498 3.45217 24.6925 3.59917C25.8825 2.88867 26.7913 1.77217 27.2183 0.427C26.1088 1.0885 24.8838 1.55517 23.5783 1.8165C22.5248 0.694167 21.0233 0 19.3853 0C16.2073 0 13.6488 2.5795 13.6488 5.74117C13.6488 6.19617 13.6873 6.63367 13.7818 7.05017C9.01017 6.81683 4.78683 4.53017 1.9495 1.04533C1.45483 1.90517 1.16317 2.88867 1.16317 3.94683C1.16317 5.93483 2.18633 7.6965 3.7135 8.71733C2.79067 8.69983 1.8865 8.4315 1.12 8.01033V8.07333C1.12 10.8628 3.10917 13.1798 5.719 13.7142C5.25117 13.8425 4.7425 13.9032 4.214 13.9032C3.8465 13.9032 3.4755 13.8822 3.12783 13.8052C3.871 16.0778 5.98267 17.7497 8.491 17.8045C6.538 19.3317 4.05767 20.2522 1.37317 20.2522C0.903 20.2522 0.4515 20.2312 0 20.174C2.54333 21.8132 5.55567 22.75 8.806 22.75C18.9362 22.75 25.5383 14.2987 25.123 5.6735Z" fill="white"/>
</svg>
