<svg width="40" height="40" viewBox="0 0 40 40" fill="none" xmlns="http://www.w3.org/2000/svg">
<path d="M34.2959 26.4546C33.662 27.8742 32.8163 29.1846 31.7908 30.342C31.1506 31.0645 31.1103 32.1753 31.7918 32.859C32.4277 33.497 33.4597 33.5259 34.0699 32.8632C37.1299 29.5399 39 25.0969 39 20.2152C39.0027 17.5097 38.417 14.8361 37.2839 12.3809C36.3677 10.3959 35.1115 8.59226 33.5761 7.05036C32.9592 6.43079 31.9634 6.47734 31.3462 7.0966C30.6467 7.79835 30.7121 8.94602 31.3969 9.66206C32.5241 10.8405 33.4576 12.1963 34.1585 13.6794C35.1239 15.722 35.6237 17.9546 35.6216 20.2152C35.6242 22.3656 35.1724 24.4922 34.2959 26.4546Z" fill="white"/>
<path d="M26.4829 23.2085C26.3036 23.5743 26.0922 23.9219 25.852 24.2475C25.2602 25.0495 25.1648 26.2103 25.8684 26.9163C26.4763 27.5262 27.4629 27.5763 28.0307 26.9289C29.6016 25.1376 30.554 22.7881 30.554 20.2152C30.5554 18.6217 30.1828 17.0502 29.4665 15.6278C28.9616 14.6253 28.2959 13.7168 27.4989 12.9371C26.9222 12.373 26.0093 12.4509 25.4398 13.0223C24.7022 13.7623 24.8588 15.0002 25.5397 15.7927C26.5597 16.9798 27.1757 18.5254 27.1757 20.2152C27.1766 21.2531 26.9396 22.2772 26.4829 23.2085Z" fill="white"/>
<path d="M9.81508 26.6665H3.33341C2.89139 26.6665 2.46746 26.4909 2.1549 26.1784C1.84234 25.8658 1.66675 25.4419 1.66675 24.9999V14.9999C1.66675 14.5578 1.84234 14.1339 2.1549 13.8214C2.46746 13.5088 2.89139 13.3332 3.33341 13.3332H9.81508L18.6384 6.11321C18.7605 6.01312 18.9085 5.94977 19.0652 5.93053C19.2219 5.91129 19.3808 5.93695 19.5235 6.00454C19.6662 6.07212 19.7867 6.17883 19.8711 6.31226C19.9554 6.44569 20.0002 6.60034 20.0001 6.75821V33.2415C20.0002 33.3994 19.9554 33.5541 19.8711 33.6875C19.7867 33.8209 19.6662 33.9276 19.5235 33.9952C19.3808 34.0628 19.2219 34.0885 19.0652 34.0692C18.9085 34.05 18.7605 33.9866 18.6384 33.8865L9.81675 26.6665H9.81508Z" fill="white"/>
</svg>
