<svg width="28" height="20" viewBox="0 0 28 20" fill="none" xmlns="http://www.w3.org/2000/svg">
<path d="M27.4231 3.06763C27.1004 1.86809 26.1547 0.922512 24.9553 0.599513C22.7642 0 13.9997 0 13.9997 0C13.9997 0 5.23548 0 3.04439 0.576783C1.86809 0.89944 0.899269 1.86827 0.576612 3.06763C0 5.25856 0 9.80224 0 9.80224C0 9.80224 0 14.3688 0.576612 16.5368C0.899611 17.7362 1.84502 18.6818 3.04456 19.0048C5.25855 19.6045 14 19.6045 14 19.6045C14 19.6045 22.7642 19.6045 24.9553 19.0277C26.1549 18.7049 27.1004 17.7593 27.4234 16.5599C27.9999 14.3688 27.9999 9.82531 27.9999 9.82531C27.9999 9.82531 28.023 5.25856 27.4231 3.06763ZM11.2093 13.9999V5.60463L18.4974 9.80224L11.2093 13.9999Z" fill="white"/>
</svg>
